# xmcd
#
# Track frame offsets: 
#        150
#        19567
#        33687
#        49587
#
# Disc length: 911 seconds
#
# Revision: 0
# Processed by: cddbd v1.5PL3 Copyright (c) Steve Scherf et al.
# Submitted via: ExactAudioCopy v0.95a4
#
DISCID=28038d04
DTITLE=G. Love and Special Sauce - Blues music
DYEAR=1994
DGENRE=Blues
TTITLE0=Blues music (slow)
TTITLE1=Rhyme for the summertime
TTITLE2=Lila
TTITLE3=Blues music (fast)
EXTD=
EXTT0=
EXTT1=
EXTT2=
EXTT3=
PLAYORDER=
